Title: My Geeky Girlfriend
Year: 2009
Country: Japan
Language: Japanese
Film Genre: Drama
Original Title: アウトレイジ
Subtitles: English(srt/idx,sub)
Director: Atsushi Kaneshige
Cast: Shunsuke Daitô, Yuta Furukawa, Satoshi Hino, Wakana Matsumoto
IMDB Link: http://www.imdb.com/title/tt1424056/


Plot or synopsis
A supposed true story about an anti-social nerd in love with an elegant beauty, Train Man served as fantasy fulfillment for otaku males everywhere. Now, it's time for otaku girls to get their time in the spotlight with How to Date an Otaku Girl. Based on a popular blog that was also turned into a comic series, the film focuses on the world of fujoshi - a type of female otaku that is into butler cafés and boys love culture - and ponders whether it's possible for them to find true love. Directed by Detroit Metal City assistant director Kaneshige Atsushi, How to Date an Otaku Girl stars Matsumoto Wakana of Masked Rider Den-O as the titular otaku girl and Daito Shunsuke (Crows Zero) as her potential significant other. It also features cameos by popular voice actors Hino Satoshi (Naruto) and Fukuyama Jun (Kuroshitsuji).
It was love at first sight when Hinata (Daito Shunsuke) spots former co-worker Yoriko (Matsumoto Wakana). Head over heels in love, Hinata confesses his love to Yoriko, but she warns him that she's a fujoshi - a term Hinata has never heard of. Ignoring her warning, the two begin dating, and Hinata suddenly finds himself knee-deep in butler costumes, boys love comics, and cosplay parties. Can Hinata see past Yoriko's strange hobbies and love her for who she is?



General
Complete name : My.Geeky.Girlfriend.2009.DVDRip.XviD.AC3-BAUM.avi
Format : AVI
Format/Info : Audio Video Interleave
Format profile : OpenDML
File size : 1.36 GiB
Duration : 1h 37mn
Overall bit rate : 1 995 Kbps
Writing application : AVI-Mux GUI 1.17.8.3, Feb 16 201019:42:50
Video #0
ID : 0
Format : MPEG-4 Visual
Format profile : Advanced Simple@L5
Format settings, BVOP : Yes
Format settings, QPel : No
Format settings, GMC : No warppoints
Format settings, Matrix : Default (H.263)
Codec ID : XVID
Codec ID/Hint : XviD
Duration : 1h 37mn
Bit rate : 1 605 Kbps
Width : 720 pixels
Height : 400 pixels
Display aspect ratio : 16:9
Frame rate : 23.976 fps
Color space : YUV
Chroma subsampling : 4:2:0
Bit depth : 8 bits
Scan type : Progressive
Bits/(Pixel*Frame) : 0.232
Stream size : 1.09 GiB (80%)
Writing library : XviD 1.2.1 (UTC 2008-12-04)
Audio #1
ID : 1
Format : AC-3
Format/Info : Audio Coding 3
Mode extension : CM (complete main)
Codec ID : 2000
Duration : 1h 37mn
Bit rate mode : Constant
Bit rate : 384 Kbps
Channel(s) : 6 channels
Channel positions : Front: L C R, Side: L R, LFE
Sampling rate : 48.0 KHz
Bit depth : 16 bits
Stream size : 268 MiB (19%)
Alignment : Aligned on interleaves
Interleave, duration : 64 ms (1.53 video frames)
Interleave, preload duration : 192 ms
Title : VTS_01_1 T80 3_2ch 384Kbps DELAY 0ms